<svg width="64" height="64" viewBox="0 0 64 64" fill="none" xmlns="http://www.w3.org/2000/svg">
<path d="M2.89884 16.931C2.89884 16.931 3.41713 3.35931 18.3326 3.80083C33.248 4.24234 58.3757 3.64726 60.8904 18.5051C63.4051 33.3629 44.7081 61.2741 29.6199 61.2357C16.6049 61.1974 2.0926 37.087 2.89884 16.931Z" fill="#1AAFDE"/>
<path d="M50.4092 17.7949C49.0463 18.39 47.5874 18.7931 46.0517 18.9851C47.6258 18.0445 48.8159 16.5856 49.3726 14.8195C47.9137 15.6834 46.3012 16.2976 44.5928 16.6432C43.2107 15.1651 41.2335 14.2437 39.0835 14.2437C34.8987 14.2437 31.5394 17.6414 31.5394 21.8069C31.5394 22.402 31.597 22.9779 31.7122 23.5346C25.435 23.2275 19.8681 20.2137 16.1441 15.6258C15.4914 16.7584 15.1075 18.0445 15.1075 19.4458C15.1075 22.0565 16.4512 24.3792 18.4668 25.723C17.2574 25.7038 16.0673 25.339 15.0499 24.8015C15.0499 24.8207 15.0499 24.8591 15.0499 24.8783C15.0499 28.5448 17.6606 31.597 21.0967 32.3072C20.4824 32.48 19.8105 32.5568 19.1195 32.5568C18.6396 32.5568 18.1405 32.5376 17.699 32.4224C18.678 35.417 21.4614 37.6054 24.7631 37.6822C22.1717 39.6786 18.9083 40.8879 15.3762 40.8879C14.7619 40.8879 14.1669 40.8687 13.5718 40.7919C16.9119 42.9419 20.8855 44.1897 25.1663 44.1897C39.0643 44.1897 46.666 32.672 46.666 22.69C46.666 22.3636 46.6468 22.0373 46.6468 21.711C48.1249 20.636 49.3918 19.3114 50.4092 17.7949Z" fill="white"/>
</svg>
