<svg width="64" height="64" viewBox="0 0 64 64" fill="none" xmlns="http://www.w3.org/2000/svg">
<path d="M2.89835 16.931C2.89835 16.931 3.41665 3.35931 18.3321 3.80083C33.2475 4.24234 58.3753 3.64726 60.89 18.5051C63.4047 33.3629 44.7076 61.2741 29.6194 61.2357C16.6044 61.1973 2.09211 37.087 2.89835 16.931Z" fill="#486EB4"/>
<path d="M41.6942 12.8806H36.6648C31.0211 12.8806 27.3547 16.6239 27.3547 22.4211V26.817H22.3061C21.8646 26.817 21.519 27.1626 21.519 27.6041V33.9772C21.519 34.4187 21.8646 34.7642 22.3061 34.7642H27.3547V50.8698C27.3547 51.3113 27.7002 51.6569 28.1417 51.6569H34.7452C35.1867 51.6569 35.5322 51.3113 35.5322 50.8698V34.7834H41.4447C41.8862 34.7834 42.2317 34.4379 42.2317 33.9964V27.6233C42.2317 27.4121 42.1549 27.2201 42.0013 27.0666C41.8478 26.913 41.6558 26.8362 41.4447 26.8362H35.5322V23.1122C35.5322 21.3269 35.9546 20.4055 38.2965 20.4055H41.675C42.1165 20.4055 42.462 20.06 42.462 19.6185V13.6677C42.4812 13.2453 42.1357 12.8806 41.6942 12.8806Z" fill="white"/>
</svg>
