<svg width="64" height="64" viewBox="0 0 64 64" fill="none" xmlns="http://www.w3.org/2000/svg">
<path d="M2.89884 16.931C2.89884 16.931 3.41713 3.35931 18.3326 3.80083C33.248 4.24234 58.3757 3.64726 60.8904 18.5051C63.4051 33.3629 44.7081 61.2741 29.6199 61.2357C16.6049 61.1974 2.0926 37.087 2.89884 16.931Z" fill="#007BB5"/>
<path d="M23.1579 16.9473H16V41.9999H23.1579V16.9473Z" fill="white"/>
<path d="M40.1561 16.9473C35.1617 16.9473 34.3027 18.7689 33.8947 20.5262V16.9473H26.7368V41.9999H33.8947V27.6841C33.8947 25.3632 35.1527 24.1052 37.4737 24.1052C39.7391 24.1052 41.0526 25.3363 41.0526 27.6841V41.9999H48.2105V29.4736C48.2105 22.3157 47.2782 16.9473 40.1561 16.9473Z" fill="white"/>
<path d="M19.5789 15.1579C21.5555 15.1579 23.1579 13.5555 23.1579 11.5789C23.1579 9.60235 21.5555 8 19.5789 8C17.6023 8 16 9.60235 16 11.5789C16 13.5555 17.6023 15.1579 19.5789 15.1579Z" fill="white"/>
</svg>
