<svg width="64" height="64" viewBox="0 0 64 64" fill="none" xmlns="http://www.w3.org/2000/svg">
<path d="M2.89884 16.6815C2.89884 16.6815 3.41713 3.1098 18.3326 3.55131C33.248 3.99283 58.3757 3.39774 60.8904 18.2556C63.4243 33.1134 44.7273 61.0438 29.6199 60.9862C16.6049 60.9478 2.0926 36.8183 2.89884 16.6815Z" fill="#EB4943"/>
<path d="M28.4297 20.1368C27.5659 19.6185 26.4717 20.252 26.4717 21.2502V33.3437C26.4717 34.3611 27.5659 34.9754 28.4297 34.4571L38.5653 28.4103C39.4099 27.9112 39.4099 26.6827 38.5653 26.1836L28.4297 20.1368ZM29.0632 31.0594V23.5345L35.3787 27.2969L29.0632 31.0594Z" fill="white"/>
<path d="M45.6487 12.2088C37.6055 11.0186 26.3758 11.0186 18.3326 12.2088C15.1076 12.6887 12.5737 15.2034 12.0362 18.4859C10.9996 24.5711 10.9996 30.0036 12.0362 36.0888C12.5929 39.3713 15.1268 41.886 18.3326 42.3659C22.3638 42.961 27.182 43.2682 32.0002 43.2682C36.8185 43.2682 41.6175 42.9802 45.6487 42.3659C48.8545 41.886 51.3884 39.3713 51.945 36.0888C52.9816 30.0036 52.9816 24.5711 51.945 18.4859C51.4076 15.2226 48.8737 12.6887 45.6487 12.2088ZM49.4112 35.6665C49.0464 37.8357 47.3764 39.5057 45.284 39.8129C37.4711 40.9646 26.5677 40.9646 18.7357 39.8129C16.6241 39.5057 14.9732 37.8357 14.6085 35.6665C13.6103 29.8117 13.6103 24.8015 14.6085 18.9274C14.9732 16.7583 16.6433 15.0882 18.7357 14.7811C22.6517 14.2052 27.3356 13.9172 32.0002 13.9172C36.6841 13.9172 41.368 14.2052 45.284 14.7811C47.3956 15.0882 49.0464 16.7583 49.4112 18.9274C50.3902 24.8015 50.3902 29.7925 49.4112 35.6665Z" fill="white"/>
</svg>
