<svg width="64" height="64" viewBox="0 0 64 64" fill="none" xmlns="http://www.w3.org/2000/svg">
<path d="M2.89884 16.931C2.89884 16.931 3.41713 3.35931 18.3326 3.80083C33.248 4.24234 58.3757 3.64726 60.8904 18.5051C63.4051 33.3629 44.7081 61.2741 29.6199 61.2357C16.6049 61.1974 2.0926 37.087 2.89884 16.931Z" fill="#2DAF4B"/>
<path d="M40.5422 30.7332C40.4654 30.6948 37.8739 29.4278 37.4132 29.2551C37.2212 29.1783 37.0293 29.1207 36.7989 29.1207C36.4534 29.1207 36.1462 29.2935 35.9159 29.639C35.6471 30.0229 34.8793 30.9443 34.6297 31.2131C34.5913 31.2515 34.553 31.2899 34.5338 31.2899C34.5146 31.2899 34.1114 31.1171 33.9963 31.0787C31.2128 29.8693 29.1012 26.9515 28.8133 26.4716C28.7749 26.3948 28.7749 26.3756 28.7749 26.3756C28.7941 26.3373 28.8709 26.2413 28.9285 26.2029C29.0629 26.0685 29.2164 25.8765 29.37 25.7038C29.4468 25.627 29.5044 25.531 29.5812 25.4542C29.7923 25.2047 29.8883 25.0127 30.0035 24.7824L30.0611 24.6672C30.3298 24.1297 30.0994 23.669 30.0227 23.5346C29.9651 23.4194 28.8709 20.7704 28.7557 20.4824C28.4678 19.8106 28.103 19.5034 27.5848 19.5034C27.5464 19.5034 27.5848 19.5034 27.3928 19.5034C27.1432 19.5226 25.8187 19.6954 25.2428 20.0601C24.6285 20.444 23.5728 21.711 23.5728 23.8993C23.5728 25.8765 24.8205 27.7578 25.3772 28.468C25.3964 28.4872 25.4156 28.5256 25.454 28.5832C27.5272 31.597 30.0994 33.843 32.7101 34.8795C35.2248 35.8777 36.415 35.9929 37.0869 35.9929C37.3748 35.9929 37.6051 35.9737 37.7971 35.9545L37.9315 35.9353C38.7953 35.8585 40.7149 34.8603 41.1372 33.6702C41.4828 32.7104 41.5788 31.6738 41.3484 31.3091C41.1564 31.0403 40.8877 30.9059 40.5422 30.7332Z" fill="white"/>
<path d="M32.3071 10.27C22.6514 10.27 14.8194 18.0637 14.8194 27.6425C14.8194 30.7331 15.6448 33.7661 17.2189 36.4152L14.2051 45.2838C14.1475 45.4566 14.1859 45.6293 14.3203 45.7637C14.4163 45.8597 14.5314 45.8981 14.6466 45.8981C14.685 45.8981 14.7426 45.8981 14.781 45.8789L24.0144 42.9419C26.5483 44.2856 29.4085 45.0151 32.2879 45.0151C41.9436 45.0151 49.7756 37.2214 49.7756 27.6617C49.814 18.0637 41.9628 10.27 32.3071 10.27ZM32.3071 41.387C29.5812 41.387 26.9514 40.6 24.6862 39.1218C24.6094 39.0643 24.5135 39.0451 24.4367 39.0451C24.3983 39.0451 24.3407 39.0451 24.3023 39.0643L19.676 40.5424L21.1733 36.1272C21.2309 35.9929 21.1925 35.8201 21.1157 35.7049C19.3881 33.3438 18.4859 30.5604 18.4859 27.6425C18.4859 20.0601 24.7054 13.8981 32.3455 13.8981C39.9856 13.8981 46.2051 20.0601 46.2051 27.6425C46.1667 35.2058 39.9472 41.387 32.3071 41.387Z" fill="white"/>
</svg>
